# xmcd
#
# Track frame offsets:
#	150
#	13480
#	31947
#	48635
#	66350
#	87985
#	108209
#	123575
#	142700
#	163710
#	180800
#	199608
#	214970
#	233472
#	247703
#	264085
#	282203
#	298035
#	313244
#
# Disc length: 4425 seconds
#
# Revision: 0
# Processed by: cddbd v1.4PL0 Copyright (c) Steve Scherf et al.
# Submitted via: dBpowerAMP V4.0
#
DISCID=07114713
DTITLE=Shania twain - Up!
DYEAR=2002
DGENRE=pop - country
TTITLE0=Up!
TTITLE1=I'm gonna getcha good
TTITLE2=She's not just a pretty face
TTITLE3=Juanita
TTITLE4=Forever and for always  
TTITLE5=Ain't no paticular way
TTITLE6=It only hurts when I'm breathing
TTITLE7=Nah
TTITLE8=That good
TTITLE9=C'est la vie
TTITLE10=I'm jealous
TTITLE11=Ka ching  
TTITLE12=Thank you baby
TTITLE13=Waiter! Bring me water
TTITLE14=What a way to wanna be
TTITLE15=I ain't goin' down  
TTITLE16=I'm not in the mood
TTITLE17=In my car
TTITLE18=When you kiss me
EXTD=Voici l'album de shania twain (recup p2p) peut être problemes dans la durée des chansons\nHere the album of shania twain (recovery p2p) can be problems in the duration of the songs 
EXTT0=
EXTT1=
EXTT2=
EXTT3=
EXTT4=
EXTT5=
EXTT6=
EXTT7=
EXTT8=
EXTT9=
EXTT10=
EXTT11=
EXTT12=
EXTT13=
EXTT14=
EXTT15=
EXTT16=
EXTT17=
EXTT18=
PLAYORDER=
